<mxfile host="65bd71144e">
    <diagram id="f2YzdrDd_q63Up3U33d7" name="Page-1">
        <mxGraphModel dx="1171" dy="2877" grid="1" gridSize="10" guides="1" tooltips="1" connect="1" arrows="1" fold="1" page="1" pageScale="1" pageWidth="850" pageHeight="1100" math="0" shadow="0">
            <root>
                <mxCell id="0"/>
                <mxCell id="1" parent="0"/>
                <mxCell id="2" value="" style="rounded=0;whiteSpace=wrap;html=1;" parent="1" vertex="1">
                    <mxGeometry x="40.5" y="-1640" width="770" height="430" as="geometry"/>
                </mxCell>
                <mxCell id="46" value="" style="shape=image;html=1;verticalLabelPosition=bottom;verticalAlign=top;imageAspect=1;aspect=fixed;image=img/clipart/Gear_128x128.png" vertex="1" parent="1">
                    <mxGeometry x="572.51" y="-1410" width="222.49" height="261" as="geometry"/>
                </mxCell>
                <mxCell id="3" value="" style="rounded=0;whiteSpace=wrap;html=1;" parent="1" vertex="1">
                    <mxGeometry x="40" y="-1640" width="770" height="70" as="geometry"/>
                </mxCell>
                <mxCell id="4" value="" style="shape=image;html=1;verticalLabelPosition=bottom;verticalAlign=top;imageAspect=1;aspect=fixed;image=https://media.discordapp.net/attachments/910885868733087747/1046480288655626380/Immune.png;fontSize=10;" parent="1" vertex="1">
                    <mxGeometry x="50" y="-1631" width="50" height="50" as="geometry"/>
                </mxCell>
                <mxCell id="7" value="Immune&lt;br&gt;&lt;div&gt;&lt;span style=&quot;font-size: 10px ; font-weight: normal&quot;&gt;Goodbye Illness, Hello Health&lt;/span&gt;&lt;/div&gt;" style="text;strokeColor=none;fillColor=none;html=1;fontSize=14;fontStyle=1;verticalAlign=middle;align=left;" parent="1" vertex="1">
                    <mxGeometry x="100" y="-1626" width="100" height="40" as="geometry"/>
                </mxCell>
                <mxCell id="36" value="Illness" style="text;html=1;strokeColor=none;fillColor=none;align=center;verticalAlign=middle;whiteSpace=wrap;rounded=0;" parent="1" vertex="1">
                    <mxGeometry x="593" y="-1620.5" width="60" height="30" as="geometry"/>
                </mxCell>
                <mxCell id="37" value="Test" style="text;html=1;strokeColor=none;fillColor=none;align=center;verticalAlign=middle;whiteSpace=wrap;rounded=0;" parent="1" vertex="1">
                    <mxGeometry x="641" y="-1619.5" width="60" height="30" as="geometry"/>
                </mxCell>
                <mxCell id="38" value="Logout" style="text;html=1;strokeColor=none;fillColor=none;align=center;verticalAlign=middle;whiteSpace=wrap;rounded=0;" parent="1" vertex="1">
                    <mxGeometry x="735" y="-1619.5" width="60" height="30" as="geometry"/>
                </mxCell>
                <mxCell id="39" value="History" style="text;html=1;strokeColor=none;fillColor=none;align=center;verticalAlign=middle;whiteSpace=wrap;rounded=0;" parent="1" vertex="1">
                    <mxGeometry x="688" y="-1619.5" width="60" height="30" as="geometry"/>
                </mxCell>
                <mxCell id="40" value="Home" style="text;html=1;strokeColor=none;fillColor=none;align=center;verticalAlign=middle;whiteSpace=wrap;rounded=0;" parent="1" vertex="1">
                    <mxGeometry x="550" y="-1620.5" width="60" height="30" as="geometry"/>
                </mxCell>
                <mxCell id="41" value="" style="shape=image;html=1;verticalLabelPosition=bottom;verticalAlign=top;imageAspect=1;aspect=fixed;image=img/clipart/Gear_128x128.png" vertex="1" parent="1">
                    <mxGeometry x="80" y="-1490" width="222.49" height="261" as="geometry"/>
                </mxCell>
                <mxCell id="42" value="Welcome To&amp;nbsp;&lt;br&gt;IMMUNE!" style="text;strokeColor=none;fillColor=none;html=1;fontSize=24;fontStyle=1;verticalAlign=middle;align=center;" vertex="1" parent="1">
                    <mxGeometry x="540" y="-1445" width="100" height="40" as="geometry"/>
                </mxCell>
                <mxCell id="43" value="&lt;span style=&quot;color: rgb(240 , 240 , 240) ; font-family: &amp;#34;helvetica&amp;#34; ; font-size: 10px ; font-style: normal ; font-weight: 400 ; letter-spacing: normal ; text-align: left ; text-indent: 0px ; text-transform: none ; word-spacing: 0px ; display: inline ; float: none&quot;&gt;Goodbye Illness, Hello Health&lt;/span&gt;" style="text;whiteSpace=wrap;html=1;" vertex="1" parent="1">
                    <mxGeometry x="520" y="-1390" width="160" height="30" as="geometry"/>
                </mxCell>
                <mxCell id="45" value="Normal" style="rounded=1;html=1;shadow=0;dashed=0;whiteSpace=wrap;fontSize=10;fillColor=#666666;align=center;strokeColor=#4D4D4D;fontColor=#ffffff;" vertex="1" parent="1">
                    <mxGeometry x="534.5" y="-1340" width="105.5" height="16.88" as="geometry"/>
                </mxCell>
            </root>
        </mxGraphModel>
    </diagram>
</mxfile>
